<svg xmlns="http://www.w3.org/2000/svg" xmlns:xlink="http://www.w3.org/1999/xlink" version="1.1" x="0px" y="0px" viewBox="0 0 100 100"  xml:space="preserve"><path d="M37.8,60.7c-3.3,0-3.3-5.1,0-5.1C41.1,55.6,41.1,60.7,37.8,60.7z M55.8,67.1c-3.3,0-3.3,5.1,0,5.1  C59.1,72.2,59.1,67.1,55.8,67.1z M43.9,74.4c-3.3,0-3.3,5.1,0,5.1C47.2,79.5,47.2,74.4,43.9,74.4z M22.5,81.4c-3.3,0-3.3,5.1,0,5.1  S25.8,81.4,22.5,81.4z M30.5,64.6c-3.3,0-3.3,5.1,0,5.1S33.8,64.6,30.5,64.6z M31.7,76.9c-3.3,0-3.3,5.1,0,5.1S35,76.9,31.7,76.9z   M64.1,64c-2.1,0-2.1,3.3,0,3.3C66.2,67.3,66.2,64,64.1,64z M24.1,75.3c-2.1,0-2.1,3.3,0,3.3S26.2,75.3,24.1,75.3z M50.2,19.5  c-2.1,0-2.1,3.3,0,3.3C52.4,22.8,52.4,19.5,50.2,19.5z M64.1,55.9c-2.8,0-2.8,4.4,0,4.4C66.9,60.3,66.9,55.9,64.1,55.9z M50.2,18.8  c0.2,0,0.4,0,0.5,0.1l-0.1-1.4c-0.3,0.1-0.6,0.1-1,0.1c-0.2,0-0.3,0-0.5,0l0.1,1.4C49.6,18.9,49.9,18.8,50.2,18.8z M33.1,65.1l3.3-4  c-0.5-0.2-0.8-0.5-1.1-0.9l-3.3,4C32.4,64.4,32.8,64.7,33.1,65.1z M64.8,63.4v-2.4C64.6,61,64.3,61,64.1,61c-0.3,0-0.5,0-0.7-0.1  v2.4c0.2-0.1,0.5-0.1,0.7-0.1C64.4,63.3,64.6,63.3,64.8,63.4z M25.9,75.5l3.4-5.3c-0.5-0.2-0.9-0.5-1.2-0.8l-3.4,5.3  C25.2,74.8,25.6,75.1,25.9,75.5z M50.3,23.6l12,32.2c0.4-0.3,0.8-0.5,1.4-0.5L51.7,23C51.3,23.4,50.9,23.5,50.3,23.6z M39.5,55.3  l10.7-31.8c-0.6,0-1-0.2-1.4-0.4L38.2,54.9C38.7,54.9,39.1,55.1,39.5,55.3z M52.7,70.7l-6.5,4c0.3,0.4,0.6,0.8,0.7,1.3l6.5-4  C53.1,71.6,52.9,71.1,52.7,70.7z M61.8,66l-3.5,1.6c0.3,0.4,0.5,0.9,0.6,1.3l3.5-1.7C62.1,67,61.9,66.5,61.8,66z M40.9,78.3  c-0.2-0.4-0.3-0.9-0.3-1.4c0,0,0,0,0-0.1l-6,1.3c0.2,0.4,0.3,0.9,0.3,1.4c0,0,0,0,0,0.1L40.9,78.3z M28.6,80.2L25,81.9  c0.3,0.4,0.5,0.9,0.6,1.3l3.6-1.7C28.9,81.1,28.7,80.7,28.6,80.2z M22.5,80.7c0.5,0,1,0.1,1.4,0.3l0.4-1.7c-0.1,0-0.1,0-0.2,0  c-0.5,0-0.9-0.1-1.2-0.3L22.5,80.7C22.5,80.7,22.5,80.7,22.5,80.7z M49.7,12.6c-2.8,0-2.8,4.4,0,4.4C52.5,16.9,52.5,12.6,49.7,12.6z  "/></svg>